<svg width="54" height="45" viewBox="0 0 54 45" fill="none" xmlns="http://www.w3.org/2000/svg">
<path d="M27.3 0.6L53.8 27.1V44.8H27.8V26.6L27.3 0.6ZM27 0L27.5 26.6V45H54V27L27 0Z" fill="black"/>
<path d="M44.8 27.1001H36.1V44.9001H44.8V27.1001Z" fill="black"/>
<path d="M44.6 27.2V44.7H36.2V27.2H44.6ZM44.8 27H35.9V45H44.8V27Z" fill="black"/>
<path d="M0.0999756 44.9001V27.0001L9.09998 0.100098H26.9L27.4 26.6001V44.9001H0.0999756Z" fill="black"/>
<path d="M26.7 0.3L27.2 26.6V44.8H9.5H0.100006V27L9 0.2H26.7M27 0H9L0 27V45H9.60001H27.5V26.6L27 0Z" fill="black"/>
<path d="M9.90002 29.5V36.5H4.10004V29.5H9.90002ZM10.2 29.3H3.90002V36.8H10.2V29.3Z" fill="black"/>
</svg>
